<svg width="44" height="35" viewBox="0 0 44 35" fill="none" xmlns="http://www.w3.org/2000/svg">
<path d="M21.8488 27.5017C16.8197 27.5017 12.7486 23.609 12.374 18.676L5.4188 13.3008C4.50448 14.4478 3.66309 15.6605 2.98414 16.9866C2.83246 17.2866 2.75344 17.6181 2.75344 17.9543C2.75344 18.2905 2.83246 18.622 2.98414 18.922C6.57977 25.9376 13.6981 30.6842 21.8488 30.6842C23.633 30.6842 25.3543 30.419 27.0132 29.9907L23.5727 27.3286C23.0045 27.4384 22.4275 27.4963 21.8488 27.5017ZM42.6561 31.3539L35.3263 25.6889C37.5529 23.8125 39.3841 21.512 40.7135 18.9213C40.8651 18.6213 40.9442 18.2898 40.9442 17.9536C40.9442 17.6174 40.8651 17.286 40.7135 16.9859C37.1178 9.97036 29.9995 5.2237 21.8488 5.2237C18.4352 5.22783 15.077 6.08721 12.081 7.72334L3.64585 1.20372C3.53585 1.11813 3.41007 1.05505 3.27568 1.01809C3.1413 0.981125 3.00095 0.971007 2.86265 0.988309C2.72436 1.00561 2.59083 1.05 2.46969 1.11893C2.34856 1.18785 2.24219 1.27998 2.15667 1.39003L0.855135 3.06552C0.68248 3.28763 0.605114 3.56922 0.640054 3.84836C0.674993 4.1275 0.819376 4.38133 1.04145 4.55403L40.0517 34.7042C40.1617 34.7898 40.2875 34.8529 40.4219 34.8898C40.5563 34.9268 40.6966 34.9369 40.8349 34.9196C40.9732 34.9023 41.1068 34.8579 41.2279 34.789C41.349 34.7201 41.4554 34.6279 41.5409 34.5179L42.8431 32.8424C43.0157 32.6202 43.093 32.3386 43.0579 32.0594C43.0228 31.7803 42.8783 31.5265 42.6561 31.3539ZM30.4749 21.9388L27.8691 19.9245C28.0886 19.2903 28.205 18.625 28.2139 17.954C28.2269 16.9715 28.0092 15.9997 27.5785 15.1167C27.1477 14.2336 26.5158 13.4639 25.7336 12.8693C24.9514 12.2747 24.0407 11.8719 23.0745 11.6931C22.1084 11.5144 21.1138 11.5647 20.1707 11.8401C20.5705 12.3819 20.7867 13.0372 20.7879 13.7105C20.778 13.9346 20.7438 14.1569 20.6858 14.3736L15.8052 10.6016C17.5006 9.1848 19.6394 8.4079 21.8488 8.40626C23.1028 8.40557 24.3447 8.65205 25.5034 9.13162C26.6621 9.61119 27.7149 10.3144 28.6016 11.2012C29.4883 12.0879 30.1916 13.1407 30.6711 14.2994C31.1507 15.4581 31.3972 16.6999 31.3965 17.954C31.3965 19.3881 31.0457 20.7248 30.4749 21.9395V21.9388Z" fill="#C18A2B"/>
</svg>
