<svg width="149" height="120" viewBox="0 0 149 120" fill="none" xmlns="http://www.w3.org/2000/svg">
<path d="M137.282 56.25L147.9 45.5625C149.367 44.0859 149.367 41.6953 147.9 40.2188L142.591 34.875C141.124 33.3984 138.749 33.3984 137.282 34.875L126.665 45.5625L116.047 34.875C114.58 33.3984 112.205 33.3984 110.739 34.875L105.43 40.2188C103.963 41.6953 103.963 44.0859 105.43 45.5625L116.047 56.25L105.43 66.9375C103.963 68.4141 103.963 70.8047 105.43 72.2812L110.739 77.625C112.205 79.1016 114.58 79.1016 116.047 77.625L126.665 66.9375L137.282 77.625C138.749 79.1016 141.124 79.1016 142.591 77.625L147.9 72.2812C149.367 70.8047 149.367 68.4141 147.9 66.9375L137.282 56.25ZM52.1561 60C68.6179 60 81.9596 46.5703 81.9596 30C81.9596 13.4297 68.6179 0 52.1561 0C35.6943 0 22.3526 13.4297 22.3526 30C22.3526 46.5703 35.6943 60 52.1561 60ZM73.0186 67.5H69.1301C63.9611 69.8906 58.2099 71.25 52.1561 71.25C46.1023 71.25 40.3744 69.8906 35.1821 67.5H31.2937C14.017 67.5 0 81.6094 0 99V108.75C0 114.961 5.00606 120 11.1763 120H93.1359C99.3062 120 104.312 114.961 104.312 108.75V99C104.312 81.6094 90.2953 67.5 73.0186 67.5Z" fill="#0B2E1C"/>
</svg>
