<svg width="502" height="394" viewBox="0 0 502 394" fill="none" xmlns="http://www.w3.org/2000/svg">
<path fill-rule="evenodd" clip-rule="evenodd" d="M501.729 114.503V371.355V376.342C501.729 376.342 501.729 387.725 487.598 393.383H481.364H25.0143H19.6113C19.6113 393.383 2.74939 393.978 0.0771484 376.342V371.355V122.129V121.153V107.623C16.2194 82.7868 114.958 0.623249 248.617 0.62323C407.484 0.623207 505.953 106.539 501.729 110.521V114.503ZM19.6113 388.228C6.17579 388.228 4.8156 376.342 4.8156 376.342V371.355L4.82094 115.646V111.211C0.0771484 115.646 83.0645 7.91276 248.617 6.775C414.17 5.63724 497.161 110.521 497.161 110.521V114.503V371.355V376.342C497.161 376.342 495.951 384.736 487.598 388.228H481.364H25.0143H19.6113Z" fill="#0B2E1C"/>
<path fill-rule="evenodd" clip-rule="evenodd" d="M4.8156 376.342C4.8156 376.342 6.17579 388.228 19.6113 388.228H25.0143H481.364H487.598C495.951 384.736 497.161 376.342 497.161 376.342V371.355V114.503V110.521C497.161 110.521 414.17 5.63724 248.617 6.775C83.0645 7.91276 0.0771484 115.646 4.82094 111.211V115.646L4.8156 371.355V376.342ZM9.84782 115.646V371.355V376.342C9.84782 382.435 19.6113 383.593 19.6113 383.593H25.0143H481.364H484.617C484.617 383.593 491.998 381.483 491.998 375.391V371.355V114.503V110.521C491.998 110.521 403.986 9.95049 248.617 11.2233C93.2483 12.496 9.84782 111.211 9.84782 111.211V115.646Z" fill="white"/>
<path fill-rule="evenodd" clip-rule="evenodd" d="M9.84782 371.355V115.646V111.211C9.84782 111.211 93.2483 12.496 248.617 11.2233C403.986 9.95049 491.998 110.521 491.998 110.521V114.503V371.355V375.391C491.998 381.483 484.617 383.593 484.617 383.593H481.364H25.0143H19.6113C19.6113 383.593 9.84782 382.435 9.84782 376.342V371.355ZM14.0537 369.404V373.356C14.0537 373.356 14.2084 379.804 19.6113 379.804H25.0143H479.104H482.848C486.592 379.804 488.255 373.772 488.255 373.772V369.196V119.805V114.503C488.255 114.503 402.234 13.2739 248.617 15.2089C95.0006 17.1439 14.0537 113.697 14.0537 113.697V119.616V369.404Z" fill="#0B2E1C"/>
<path d="M14.0537 373.356V369.404V119.616V113.697C14.0537 113.697 95.0006 17.1439 248.617 15.2089C402.234 13.2739 488.255 114.503 488.255 114.503V119.805V369.196V373.772C488.255 373.772 486.592 379.804 482.848 379.804H479.104H25.0143H19.6113C14.2084 379.804 14.0537 373.356 14.0537 373.356Z" fill="#C18A2B"/>
<path d="M265.894 368.502H286.842V343.162H319.521V326.404H286.842V313.276H321.477V295.4H265.894V368.502Z" fill="#0B2E1C"/>
<path d="M195.776 368.502H216.725V343.162H249.404V326.404H216.725V313.276H251.359V295.4H195.776V368.502Z" fill="#0B2E1C"/>
<path fill-rule="evenodd" clip-rule="evenodd" d="M174.411 259.138H214.742L222.525 223.406H279.838L289.037 259.138H328.306L272.763 40.1473H230.309L174.411 259.138ZM250.178 157.321C250.681 165.715 248.733 171.742 243.855 172.564C242.8 172.436 241.979 172.075 241.979 172.075C215.03 156.54 223.521 105.482 250.178 104.199C276.834 102.916 292.608 151.485 266.675 172.564L264.895 173.323C263.237 173.326 261.792 172.632 260.769 170.601C260.556 166.929 261.058 163.377 260.46 158.942C258.558 152.958 257.759 149.747 255.238 143.561C252.826 134.433 252.314 127.924 252.692 114.154C247.924 123.402 246.403 129.44 247.231 142.82C248.005 148.324 249.674 148.927 250.178 157.321Z" fill="#0B2E1C"/>
<path d="M243.855 172.564C248.733 171.742 250.681 165.715 250.178 157.321C249.674 148.927 248.005 148.324 247.231 142.82C246.403 129.44 247.924 123.402 252.692 114.154C252.314 127.924 252.826 134.433 255.238 143.561C257.759 149.747 258.558 152.958 260.46 158.942C261.058 163.377 260.556 166.929 260.769 170.601C261.792 172.632 263.237 173.326 264.895 173.323L266.675 172.564C292.608 151.485 276.834 102.916 250.178 104.199C223.521 105.482 215.03 156.54 241.979 172.075C241.979 172.075 242.8 172.436 243.855 172.564Z" fill="white"/>
<path d="M407.434 367.271H464.321V350.256H428.512V340.352H461.527V321.812H428.512V313.178H464.321V295.4H407.434V367.271Z" fill="#0B2E1C"/>
<path d="M336.012 367.271H392.899V350.256H357.09V340.352H390.106V321.812H357.09V313.178H392.899V295.4H336.012V367.271Z" fill="#0B2E1C"/>
<path d="M43.8157 308.094C58.779 287.936 87.4585 288.975 103.461 305.808L91.4071 317.031C78.7014 309.906 68.1482 311.883 62.9351 317.031C57.7219 322.178 53.583 335.111 61.6881 345.502C68.3137 353.997 83.9166 354.411 91.4071 344.463C91.4071 344.463 102.806 355.665 103.461 356.725C104.24 357.986 103.461 358.387 103.461 358.387C91.4071 373.351 62.7273 372.312 49.2191 361.297C35.711 350.282 31.9367 327.037 43.8157 308.094Z" fill="#0B2E1C"/>
<path d="M70.9319 261.09H33.5713L32.042 130.438L67.4361 100.288V153.943L112.006 147.871L109.385 74.0697L148.493 57.2466L154.829 261.09H116.595L112.006 190.375L70.9319 194.626V261.09Z" fill="#0B2E1C"/>
<path d="M347.89 259.65H387.376L390.911 165.946L438.058 259.65H470.472V128.818L438.058 99.351L435.112 183.626L387.376 71.0629L355.551 58.6869L347.89 259.65Z" fill="#0B2E1C"/>
<path fill-rule="evenodd" clip-rule="evenodd" d="M146.899 293.075C93.4106 293.075 93.409 369.597 146.899 369.597C200.39 369.597 200.388 293.075 146.899 293.075ZM146.899 314.437C121.662 314.437 122.975 350.165 146.899 350.165C170.824 350.165 172.137 314.437 146.899 314.437Z" fill="#0B2E1C"/>
</svg>
