<svg width="71" height="57" viewBox="0 0 71 57" fill="none" xmlns="http://www.w3.org/2000/svg">
<path d="M53.6155 21.4372H37.0883V27.5262C37.0883 31.8428 33.5762 35.3549 29.2596 35.3549C24.9429 35.3549 21.4309 31.8428 21.4309 27.5262V14.3044L14.3742 18.5449C12.2757 19.7953 10.9926 22.0678 10.9926 24.5034V29.6464L2.29407 34.6698C0.630472 35.6267 0.054193 37.7578 1.02191 39.4214L9.72046 54.4917C10.6773 56.1553 12.8084 56.7207 14.472 55.7638L25.7149 49.2725H40.5677C44.4059 49.2725 47.5266 46.1519 47.5266 42.3137H49.2663C51.1908 42.3137 52.7457 40.7588 52.7457 38.8343V31.8754H53.6155C55.0617 31.8754 56.2251 30.712 56.2251 29.2659V24.0467C56.2251 22.6006 55.0617 21.4372 53.6155 21.4372ZM69.6753 17.3706L60.9767 2.30035C60.0199 0.636749 57.8887 0.0713425 56.2251 1.02818L44.9822 7.51948H33.8698C32.565 7.51948 31.2929 7.88917 30.1838 8.57418L26.5413 10.8467C25.5192 11.4773 24.9103 12.5973 24.9103 13.7933V27.5262C24.9103 29.9291 26.8566 31.8754 29.2596 31.8754C31.6626 31.8754 33.6089 29.9291 33.6089 27.5262V17.9577H53.6155C56.9754 17.9577 59.7045 20.6869 59.7045 24.0467V27.1456L68.4031 22.1222C70.0667 21.1545 70.6321 19.0342 69.6753 17.3706Z" fill="#C18A2B"/>
</svg>
