<svg width="401" height="571" viewBox="0 0 401 571" fill="none" xmlns="http://www.w3.org/2000/svg">
<path d="M341.148 95.5249L315.034 16.4114H70.9548L44.8411 95.5249M341.148 174.638L288.078 554.676H97.8057L44.8411 174.638" fill="#EDEDED"/>
<path d="M192.995 95.5249H7.77637L15.1472 174.638H370.842L378.213 95.5249H192.995Z" fill="#EDEDED"/>
<path d="M318.825 443.94H67.1641L44.8411 269.845H341.148L318.825 443.94Z" fill="#FFA500"/>
<path d="M396.744 84.9465C393.901 81.6829 389.899 79.7698 385.793 79.7698H359.258L336.619 11.1222C334.513 4.8201 328.932 0.543701 322.614 0.543701H78.535C72.2171 0.543701 66.6364 4.8201 64.5304 11.1222L41.8915 79.7698H15.3565C11.1446 79.7698 7.14334 81.6829 4.4056 84.9465C1.56257 88.21 0.193699 92.7115 0.614889 97.1004L7.8804 176.214C8.61749 184.317 15.0406 190.506 22.622 190.506H39.5749L48.5252 254.54C45.6822 255.327 43.155 257.016 41.1544 259.379C38.3114 262.867 37.0478 267.369 37.6796 271.983L60.0026 446.078C61.0556 453.955 67.2681 459.807 74.639 459.807H77.1661L90.7495 557.039C91.8025 564.804 98.1203 570.544 105.386 570.544H295.658C303.029 570.544 309.242 564.804 310.295 557.039L323.878 459.807H326.405C333.776 459.807 340.094 453.955 341.041 446.078L363.364 271.87C363.996 267.369 362.627 262.755 359.89 259.266C357.889 256.903 355.362 255.215 352.519 254.427L361.469 190.394H378.422C386.003 190.394 392.427 184.204 393.164 176.101L400.429 96.9879C400.956 92.599 399.587 88.21 396.744 84.9465ZM214.158 32.1666C213.842 36.2179 212.789 40.9445 210.262 43.983C208.051 46.6838 204.787 47.9218 200.154 47.9218C195.52 47.9218 192.046 46.5713 189.518 43.7579C186.886 40.7194 185.517 36.1054 184.991 32.1666H214.158ZM88.9594 32.1666H170.038C170.67 38.6937 172.671 47.5842 178.568 54.4489C183.832 60.5259 191.309 63.7895 200.048 63.7895C211.21 63.7895 217.843 58.6128 221.318 54.3364C226.899 47.4716 228.479 38.6937 228.9 32.1666H312.085L327.774 79.6572H73.3754L88.9594 32.1666ZM282.917 538.808H118.232L107.176 459.695H293.974L282.917 538.808ZM313.454 428.072H87.6958L69.4794 285.6H331.775L313.454 428.072ZM322.72 253.977H78.4297L69.5847 190.506H331.459L322.72 253.977ZM365.049 158.883H36.1001L31.6776 111.393H369.261L365.049 158.883Z" fill="#211F1E"/>
</svg>
