<svg width="29" height="29" viewBox="0 0 29 29" fill="none" xmlns="http://www.w3.org/2000/svg">
<path d="M27.9643 24.8571H1.03571C0.761026 24.8571 0.497588 24.9663 0.303354 25.1605C0.10912 25.3547 0 25.6182 0 25.8929L0 27.9643C0 28.239 0.10912 28.5024 0.303354 28.6966C0.497588 28.8909 0.761026 29 1.03571 29H27.9643C28.239 29 28.5024 28.8909 28.6966 28.6966C28.8909 28.5024 29 28.239 29 27.9643V25.8929C29 25.6182 28.8909 25.3547 28.6966 25.1605C28.5024 24.9663 28.239 24.8571 27.9643 24.8571ZM27.9643 16.5714H1.03571C0.761026 16.5714 0.497588 16.6805 0.303354 16.8748C0.10912 17.069 0 17.3325 0 17.6071L0 19.6786C0 19.9533 0.10912 20.2167 0.303354 20.4109C0.497588 20.6052 0.761026 20.7143 1.03571 20.7143H27.9643C28.239 20.7143 28.5024 20.6052 28.6966 20.4109C28.8909 20.2167 29 19.9533 29 19.6786V17.6071C29 17.3325 28.8909 17.069 28.6966 16.8748C28.5024 16.6805 28.239 16.5714 27.9643 16.5714ZM27.9643 8.28571H1.03571C0.761026 8.28571 0.497588 8.39483 0.303354 8.58907C0.10912 8.7833 0 9.04674 0 9.32143L0 11.3929C0 11.6675 0.10912 11.931 0.303354 12.1252C0.497588 12.3195 0.761026 12.4286 1.03571 12.4286H27.9643C28.239 12.4286 28.5024 12.3195 28.6966 12.1252C28.8909 11.931 29 11.6675 29 11.3929V9.32143C29 9.04674 28.8909 8.7833 28.6966 8.58907C28.5024 8.39483 28.239 8.28571 27.9643 8.28571ZM27.9643 0H1.03571C0.761026 0 0.497588 0.10912 0.303354 0.303354C0.10912 0.497588 0 0.761026 0 1.03571L0 3.10714C0 3.38183 0.10912 3.64527 0.303354 3.8395C0.497588 4.03374 0.761026 4.14286 1.03571 4.14286H27.9643C28.239 4.14286 28.5024 4.03374 28.6966 3.8395C28.8909 3.64527 29 3.38183 29 3.10714V1.03571C29 0.761026 28.8909 0.497588 28.6966 0.303354C28.5024 0.10912 28.239 0 27.9643 0Z" fill="#C18A2B"/>
</svg>
