<svg width="44" height="29" viewBox="0 0 44 29" fill="none" xmlns="http://www.w3.org/2000/svg">
<path d="M42.7879 13.2494C38.7929 5.4547 30.8841 0.180908 21.8282 0.180908C12.7724 0.180908 4.86135 5.45838 0.868624 13.2501C0.700106 13.5834 0.612305 13.9517 0.612305 14.3253C0.612305 14.6988 0.700106 15.0671 0.868624 15.4004C4.86356 23.1951 12.7724 28.4689 21.8282 28.4689C30.8841 28.4689 38.7951 23.1914 42.7879 15.3997C42.9564 15.0663 43.0442 14.6981 43.0442 14.3245C43.0442 13.951 42.9564 13.5827 42.7879 13.2494ZM21.8282 24.9329C19.7302 24.9329 17.6792 24.3107 15.9348 23.1451C14.1903 21.9795 12.8306 20.3228 12.0277 18.3844C11.2248 16.446 11.0148 14.3131 11.4241 12.2554C11.8334 10.1976 12.8437 8.30747 14.3273 6.82391C15.8108 5.34036 17.701 4.33005 19.7587 3.92074C21.8165 3.51142 23.9494 3.7215 25.8878 4.52439C27.8261 5.32728 29.4829 6.68694 30.6485 8.43141C31.8141 10.1759 32.4362 12.2268 32.4362 14.3249C32.4369 15.7181 32.163 17.0979 31.6301 18.3852C31.0973 19.6725 30.3159 20.8422 29.3307 21.8274C28.3456 22.8126 27.1759 23.5939 25.8886 24.1268C24.6012 24.6596 23.2215 24.9336 21.8282 24.9329ZM21.8282 7.2529C21.197 7.26172 20.5699 7.35564 19.9637 7.5321C20.4634 8.21106 20.7031 9.0466 20.6395 9.88718C20.5759 10.7278 20.2132 11.5177 19.6171 12.1138C19.0211 12.7099 18.2311 13.0726 17.3905 13.1362C16.55 13.1998 15.7144 12.96 15.0355 12.4604C14.6488 13.8848 14.7186 15.3946 15.235 16.7773C15.7514 18.1599 16.6884 19.3458 17.9141 20.1681C19.1397 20.9904 20.5924 21.4075 22.0676 21.3609C23.5429 21.3143 24.9663 20.8063 26.1377 19.9083C27.309 19.0103 28.1693 17.7676 28.5973 16.3551C29.0254 14.9426 28.9998 13.4315 28.524 12.0343C28.0483 10.6371 27.1463 9.42433 25.9452 8.56661C24.7441 7.70889 23.3042 7.24943 21.8282 7.2529Z" fill="#C18A2B"/>
</svg>
