<svg width="401" height="571" viewBox="0 0 401 571" fill="none" xmlns="http://www.w3.org/2000/svg">
e<path d="M190.836 238.044H209.883C215.15 238.044 219.407 233.797 219.407 228.544C219.407 223.29 215.149 219.045 209.883 219.045H190.836C185.568 219.045 181.312 223.291 181.312 228.544C181.311 233.797 185.568 238.044 190.836 238.044Z" fill="black"/>
<path d="M171.788 276.043H228.931C234.198 276.043 238.454 271.797 238.454 266.544C238.454 261.29 234.197 257.044 228.931 257.044H171.788C166.521 257.044 162.264 261.291 162.264 266.544C162.263 271.797 166.521 276.043 171.788 276.043Z" fill="black"/>
<path d="M181.311 542.043H200.359C205.626 542.043 209.882 537.796 209.882 532.544C209.882 527.29 205.625 523.044 200.359 523.044H181.311C176.054 523.044 171.788 518.788 171.788 513.545V494.544C171.788 489.29 167.531 485.045 162.265 485.045C156.998 485.045 152.741 489.292 152.741 494.544V513.545C152.74 529.257 165.56 542.043 181.311 542.043Z" fill="black"/>
<path d="M400.359 209.544V195.294C400.359 177.178 391.606 159.973 376.95 149.286C367.75 142.57 362.264 131.369 362.264 119.295V114.544C372.769 114.544 381.312 106.023 381.312 95.5443V57.544C381.312 47.0655 372.769 38.5439 362.264 38.5439H286.073C275.568 38.5439 267.025 47.0655 267.025 57.544V95.5443C267.025 106.023 275.568 114.544 286.073 114.544V119.295C286.073 129.479 281.997 138.864 275.254 145.638C272.377 131.996 264.597 119.637 253.13 111.277C243.939 104.58 238.454 93.3689 238.454 81.2945V76.5442C248.959 76.5442 257.502 68.0226 257.502 57.544V19.5438C257.502 9.06529 248.959 0.543701 238.454 0.543701H162.263C151.759 0.543701 143.216 9.06529 143.216 19.5438V57.544C143.216 68.0226 151.759 76.5442 162.263 76.5442V81.2945C162.263 93.3689 156.777 104.579 147.588 111.277C136.121 119.647 128.34 131.996 125.464 145.638C118.72 138.864 114.645 129.479 114.645 119.295V114.544C125.149 114.544 133.692 106.023 133.692 95.5443V57.544C133.692 47.0655 125.149 38.5439 114.645 38.5439H38.4537C27.9489 38.5439 19.406 47.0655 19.406 57.544V95.5443C19.406 106.023 27.9489 114.544 38.4537 114.544V119.295C38.4537 131.369 32.9676 142.57 23.7779 149.277C9.11109 159.974 0.359375 177.179 0.359375 195.295V209.545H124.169V228.545H0.359375V342.545H124.169V361.545H0.359375V542.044C0.359375 557.757 13.1789 570.544 28.9304 570.544H133.692H267.025H371.787C387.54 570.544 400.358 557.756 400.358 542.044V361.544H276.55V342.543H400.359V228.544H276.55V209.544H400.359ZM286.073 57.544H362.264L362.283 95.5443H352.741H295.597H286.074V57.544H286.073ZM47.9781 95.5431H38.4548V57.544H114.646L114.665 95.5443H105.122L47.9781 95.5431ZM67.0258 257.044H86.0736C91.3407 257.044 95.5969 261.29 95.5969 266.543C95.5969 271.797 91.3396 276.043 86.0736 276.043H67.0258C61.7587 276.043 57.5026 271.796 57.5026 266.543C57.5026 261.29 61.7598 257.044 67.0258 257.044ZM105.121 314.044H47.9781C42.711 314.044 38.4548 309.797 38.4548 304.544C38.4548 299.29 42.7121 295.045 47.9781 295.045H105.121C110.388 295.045 114.645 299.292 114.645 304.544C114.645 309.797 110.387 314.044 105.121 314.044ZM76.5503 542.043H57.5026C41.7499 542.043 28.9315 529.256 28.9315 513.543V494.543C28.9315 489.289 33.1888 485.044 38.4548 485.044C43.722 485.044 47.9781 489.29 47.9781 494.543V513.543C47.9781 518.787 52.2445 523.043 57.5014 523.043H76.5491C81.8163 523.043 86.0724 527.29 86.0724 532.542C86.0736 537.796 81.8163 542.043 76.5503 542.043ZM257.502 352.043V551.544H143.217V352.043V323.543H257.502V352.043ZM257.502 219.043V304.543H143.217V219.043V190.544H257.502V219.043ZM257.502 166.927V171.544H143.217V166.927V157.294C143.217 145.219 149.046 133.744 158.826 126.619C172.903 116.35 181.312 99.4016 181.312 81.2945V76.5442H219.408V81.2945C219.408 99.4016 227.817 116.35 241.893 126.619C251.674 133.744 257.503 145.219 257.503 157.294V166.927H257.502ZM286.073 494.543C286.073 489.289 290.33 485.044 295.596 485.044C300.863 485.044 305.12 489.29 305.12 494.543V513.543C305.12 518.787 309.386 523.043 314.643 523.043H333.691C338.958 523.043 343.214 527.29 343.214 532.542C343.214 537.796 338.957 542.042 333.691 542.042H314.643C298.89 542.042 286.072 529.254 286.072 513.542V494.543H286.073ZM314.645 257.044H333.693C338.96 257.044 343.216 261.29 343.216 266.543C343.216 271.797 338.959 276.043 333.693 276.043H314.645C309.378 276.043 305.122 271.796 305.122 266.543C305.121 261.29 309.378 257.044 314.645 257.044ZM295.597 295.044H352.741C358.008 295.044 362.264 299.29 362.264 304.543C362.264 309.797 358.007 314.043 352.741 314.043H295.597C290.33 314.043 286.074 309.796 286.074 304.543C286.073 299.29 290.33 295.044 295.597 295.044Z" fill="black"/>
</svg>
