<?xml version="1.0" encoding="iso-8859-1"?>
<!-- Uploaded to: SVG Repo, www.svgrepo.com, Generator: SVG Repo Mixer Tools -->
<svg height="800px" width="800px" version="1.1" id="Layer_1" xmlns="http://www.w3.org/2000/svg" xmlns:xlink="http://www.w3.org/1999/xlink" 
	 viewBox="0 0 512 512" xml:space="preserve">
<path style="fill:#FFC1A6;" d="M194.11,0v239.684c59.977,0,108.589-48.612,108.589-108.589v-22.505
	C302.699,48.623,254.087,0,194.11,0z"/>
<path style="fill:#FFDBCC;" d="M194.11,0c41.331,0,74.831,48.623,74.831,108.589v22.505c0,59.977-33.499,108.589-74.831,108.589
	c-59.977,0-108.589-48.612-108.589-108.589v-22.505C85.521,48.623,134.133,0,194.11,0z"/>
<path style="fill:#FEDC3D;" d="M196.034,272.89l147.175,182.846h33.758C376.967,355.384,296.139,273.926,196.034,272.89z"/>
<path style="fill:#FFE777;" d="M196.034,272.89c81.459,1.272,147.175,82.64,147.175,182.846H11.253
	c0-100.993,81.864-182.857,182.857-182.857C194.751,272.879,195.393,272.879,196.034,272.89z"/>
<path style="fill:#D5F6F5;" d="M216.615,274.252l-22.506,63.713c31.069,0,56.253-25.172,56.264-56.253
	C239.526,278.202,228.239,275.681,216.615,274.252z"/>
<path style="fill:#FFFFFF;" d="M216.615,274.252v7.449c0,31.08-10.071,56.264-22.506,56.264c-31.069,0-56.264-25.184-56.264-56.264
	c17.723-5.728,36.628-8.822,56.264-8.822C201.728,272.879,209.234,273.341,216.615,274.252z"/>
<g>
	<path style="fill:#272727;" d="M235.745,127.363c-4.661,0-8.44-3.779-8.44-8.44v-16.879c0-4.661,3.779-8.44,8.44-8.44
		c4.661,0,8.44,3.779,8.44,8.44v16.879C244.185,123.584,240.406,127.363,235.745,127.363z"/>
	<path style="fill:#272727;" d="M152.475,127.363c-4.661,0-8.44-3.779-8.44-8.44v-16.879c0-4.661,3.779-8.44,8.44-8.44
		s8.44,3.779,8.44,8.44v16.879C160.914,123.584,157.136,127.363,152.475,127.363z"/>
</g>
<path style="fill:#FE5F1A;" d="M194.11,179.838c-11.791,0-22.09-7.984-25.05-19.415c-1.168-4.512,1.544-9.118,6.055-10.285
	c4.512-1.17,9.117,1.543,10.285,6.056c1.031,3.983,4.613,6.765,8.708,6.765c4.096,0,7.678-2.782,8.708-6.765
	c1.168-4.512,5.772-7.221,10.285-6.056c4.512,1.168,7.223,5.773,6.055,10.285C216.2,171.854,205.901,179.838,194.11,179.838z"/>
<path style="fill:#027372;" d="M388.22,286.945v202.549l56.265,7.448c33.633-19.456,56.263-55.818,56.263-97.47
	C500.747,337.324,450.369,286.945,388.22,286.945z"/>
<path style="fill:#02ACAB;" d="M388.22,286.945c43.503,0,78.769,50.379,78.769,112.527c0,30.657-8.581,58.449-22.499,78.744
	l-112.535,18.726c-33.632-19.457-56.263-55.82-56.263-97.47C275.692,337.324,326.071,286.945,388.22,286.945z"/>
<path style="fill:#FEDC3D;" d="M386.281,511.975c0.646,0.011,1.291,0.025,1.939,0.025c20.497,0,39.713-5.482,56.265-15.057
	l-0.001-73.839l-67.517-11.253L386.281,511.975z"/>
<path style="fill:#FFF1B1;" d="M331.956,423.103l-0.002,73.839C348.505,506.518,367.723,512,388.22,512V411.851L331.956,423.103z"/>
<polygon style="fill:#FFDBCC;" points="416.352,372.466 444.484,423.103 410.725,423.103 376.967,361.213 "/>
<polygon style="fill:#FFFFFF;" points="399.473,361.213 410.725,423.103 331.956,423.103 360.088,372.466 "/>
<polygon style="fill:#272727;" points="360.088,372.466 416.352,372.466 388.22,321.829 "/>
</svg>