<svg width="401" height="571" viewBox="0 0 401 571" fill="none" xmlns="http://www.w3.org/2000/svg">
<path d="M341.392 95.0889L315.278 15.9753H71.199L45.0852 95.0889M341.392 174.202L288.322 554.24H98.0498L45.0852 174.202" fill="#EDEDED"/>
<path d="M193.239 95.0889H8.02051L15.3913 174.202H371.086L378.457 95.0889H193.239Z" fill="#EDEDED"/>
<path d="M319.069 443.503H67.4083L45.0852 269.409H341.392L319.069 443.503Z" fill="#F4867B"/>
<path d="M396.988 84.5104C394.145 81.2469 390.144 79.3337 386.037 79.3337H359.502L336.863 10.6861C334.757 4.38407 329.176 0.107666 322.859 0.107666H78.7791C72.4613 0.107666 66.8805 4.38407 64.7745 10.6861L42.1356 79.3337H15.6007C11.3888 79.3337 7.38748 81.2469 4.64974 84.5104C1.80671 87.774 0.43784 92.2755 0.85903 96.6644L8.12455 175.778C8.86163 183.881 15.2848 190.07 22.8662 190.07H39.8191L48.7694 254.104C45.9263 254.891 43.3992 256.58 41.3985 258.943C38.5555 262.431 37.2919 266.933 37.9237 271.547L60.2468 445.642C61.2997 453.519 67.5123 459.371 74.8831 459.371H77.4102L90.9936 556.603C92.0466 564.368 98.3644 570.108 105.63 570.108H295.902C303.273 570.108 309.486 564.368 310.539 556.603L324.122 459.371H326.649C334.02 459.371 340.338 453.519 341.286 445.642L363.609 271.434C364.24 266.933 362.872 262.319 360.134 258.83C358.133 256.467 355.606 254.779 352.763 253.991L361.713 189.958H378.666C386.248 189.958 392.671 183.768 393.408 175.665L400.673 96.5519C401.2 92.1629 399.831 87.774 396.988 84.5104ZM214.402 31.7305C214.086 35.7819 213.033 40.5084 210.506 43.5469C208.295 46.2478 205.031 47.4857 200.398 47.4857C195.765 47.4857 192.29 46.1353 189.763 43.3219C187.13 40.2834 185.761 35.6693 185.235 31.7305H214.402ZM89.2036 31.7305H170.283C170.914 38.2577 172.915 47.1481 178.812 54.0129C184.077 60.0899 191.553 63.3534 200.292 63.3534C211.454 63.3534 218.088 58.1768 221.562 53.9003C227.143 47.0356 228.723 38.2577 229.144 31.7305H312.329L328.018 79.2212H73.6196L89.2036 31.7305ZM283.161 538.372H118.476L107.42 459.259H294.218L283.161 538.372ZM313.698 427.636H87.94L69.7235 285.164H332.019L313.698 427.636ZM322.964 253.541H78.6738L69.8288 190.07H331.704L322.964 253.541ZM365.293 158.447H36.3442L31.9218 110.957H369.505L365.293 158.447Z" fill="#211F1E"/>
</svg>
